# MagicaVoxel @ Ephtracy

# group
o 

# material
mtllib Crafting_2.mtl
usemtl palette

# normals
vn -1 0 0
vn 1 0 0
vn 0 0 1
vn 0 0 -1
vn 0 -1 0
vn 0 1 0

# texcoords
vt 0.310547 0.5
vt 0.455078 0.5

# verts
v -3.1 2.6 1
v -3.1 2.6 0.8
v -3.1 2.6 0.1
v -3.1 2.6 -0.1
v -3.1 2.6 -0.8
v -3.1 2.6 -1
v -3.1 2.8 1
v -3.1 2.8 0.8
v -3.1 2.8 0.1
v -3.1 2.8 -0.1
v -3.1 2.8 -0.8
v -3.1 2.8 -1
v -3 0 1.5
v -3 0 1.1
v -3 0 -1.1
v -3 0 -1.5
v -3 0.5 1.1
v -3 0.5 -1.1
v -3 0.8 1.1
v -3 0.8 -1.1
v -3 2.5 1
v -3 2.5 0.8
v -3 2.5 0.1
v -3 2.5 -0.1
v -3 2.5 -0.8
v -3 2.5 -1
v -3 2.6 1.1
v -3 2.6 1
v -3 2.6 0.8
v -3 2.6 0.1
v -3 2.6 -0.1
v -3 2.6 -0.8
v -3 2.6 -1
v -3 2.6 -1.1
v -3 2.8 1.5
v -3 2.8 1
v -3 2.8 0.8
v -3 2.8 0.1
v -3 2.8 -0.1
v -3 2.8 -0.8
v -3 2.8 -1
v -3 2.8 -1.5
v -3 2.9 1
v -3 2.9 0.8
v -3 2.9 0.1
v -3 2.9 -0.1
v -3 2.9 -0.8
v -3 2.9 -1
v 2.6 0 1.5
v 2.6 0 1.1
v 2.6 0 -1.1
v 2.6 0 -1.5
v 2.6 0.5 1.1
v 2.6 0.5 0.1
v 2.6 0.5 -0.1
v 2.6 0.5 -1.1
v 2.6 0.8 1.1
v 2.6 0.8 0.1
v 2.6 0.8 -0.1
v 2.6 0.8 -1.1
v 2.6 2.5 1.4
v 2.6 2.5 1.2
v 2.6 2.5 -1.2
v 2.6 2.5 -1.4
v 2.6 2.6 1.5
v 2.6 2.6 1.4
v 2.6 2.6 1.2
v 2.6 2.6 1.1
v 2.6 2.6 -1.1
v 2.6 2.6 -1.2
v 2.6 2.6 -1.4
v 2.6 2.6 -1.5
v -2.6 0 1.5
v -2.6 0 1.1
v -2.6 0 -1.1
v -2.6 0 -1.5
v -2.6 0.5 1.1
v -2.6 0.5 0.1
v -2.6 0.5 -0.1
v -2.6 0.5 -1.1
v -2.6 0.8 1.1
v -2.6 0.8 0.1
v -2.6 0.8 -0.1
v -2.6 0.8 -1.1
v -2.6 2.5 1.4
v -2.6 2.5 1.2
v -2.6 2.5 -1.2
v -2.6 2.5 -1.4
v -2.6 2.6 1.5
v -2.6 2.6 1.4
v -2.6 2.6 1.2
v -2.6 2.6 1.1
v -2.6 2.6 -1.1
v -2.6 2.6 -1.2
v -2.6 2.6 -1.4
v -2.6 2.6 -1.5
v 3 0 1.5
v 3 0 1.1
v 3 0 -1.1
v 3 0 -1.5
v 3 0.5 1.1
v 3 0.5 -1.1
v 3 0.8 1.1
v 3 0.8 -1.1
v 3 2.5 1
v 3 2.5 0.8
v 3 2.5 0.1
v 3 2.5 -0.1
v 3 2.5 -0.8
v 3 2.5 -1
v 3 2.6 1.1
v 3 2.6 1
v 3 2.6 0.8
v 3 2.6 0.1
v 3 2.6 -0.1
v 3 2.6 -0.8
v 3 2.6 -1
v 3 2.6 -1.1
v 3 2.8 1.5
v 3 2.8 1
v 3 2.8 0.8
v 3 2.8 0.1
v 3 2.8 -0.1
v 3 2.8 -0.8
v 3 2.8 -1
v 3 2.8 -1.5
v 3 2.9 1
v 3 2.9 0.8
v 3 2.9 0.1
v 3 2.9 -0.1
v 3 2.9 -0.8
v 3 2.9 -1
v 3.1 2.6 1
v 3.1 2.6 0.8
v 3.1 2.6 0.1
v 3.1 2.6 -0.1
v 3.1 2.6 -0.8
v 3.1 2.6 -1
v 3.1 2.8 1
v 3.1 2.8 0.8
v 3.1 2.8 0.1
v 3.1 2.8 -0.1
v 3.1 2.8 -0.8
v 3.1 2.8 -1
v -3 0 1.5
v -3 2.8 1.5
v -2.6 0 1.5
v -2.6 2.6 1.5
v 2.6 0 1.5
v 2.6 2.6 1.5
v 3 0 1.5
v 3 2.8 1.5
v -2.6 2.5 1.4
v -2.6 2.6 1.4
v 2.6 2.5 1.4
v 2.6 2.6 1.4
v -3.1 2.6 1
v -3.1 2.8 1
v -3 2.5 1
v -3 2.6 1
v -3 2.8 1
v -3 2.9 1
v 3 2.5 1
v 3 2.6 1
v 3 2.8 1
v 3 2.9 1
v 3.1 2.6 1
v 3.1 2.8 1
v -3.1 2.6 0.1
v -3.1 2.8 0.1
v -3 2.5 0.1
v -3 2.6 0.1
v -3 2.8 0.1
v -3 2.9 0.1
v -2.6 0.5 0.1
v -2.6 0.8 0.1
v 2.6 0.5 0.1
v 2.6 0.8 0.1
v 3 2.5 0.1
v 3 2.6 0.1
v 3 2.8 0.1
v 3 2.9 0.1
v 3.1 2.6 0.1
v 3.1 2.8 0.1
v -3.1 2.6 -0.8
v -3.1 2.8 -0.8
v -3 2.5 -0.8
v -3 2.6 -0.8
v -3 2.8 -0.8
v -3 2.9 -0.8
v 3 2.5 -0.8
v 3 2.6 -0.8
v 3 2.8 -0.8
v 3 2.9 -0.8
v 3.1 2.6 -0.8
v 3.1 2.8 -0.8
v -3 0 -1.1
v -3 0.5 -1.1
v -3 0.8 -1.1
v -3 2.6 -1.1
v -2.6 0 -1.1
v -2.6 0.5 -1.1
v -2.6 0.8 -1.1
v -2.6 2.6 -1.1
v 2.6 0 -1.1
v 2.6 0.5 -1.1
v 2.6 0.8 -1.1
v 2.6 2.6 -1.1
v 3 0 -1.1
v 3 0.5 -1.1
v 3 0.8 -1.1
v 3 2.6 -1.1
v -2.6 2.5 -1.2
v -2.6 2.6 -1.2
v 2.6 2.5 -1.2
v 2.6 2.6 -1.2
v -2.6 2.5 1.2
v -2.6 2.6 1.2
v 2.6 2.5 1.2
v 2.6 2.6 1.2
v -3 0 1.1
v -3 0.5 1.1
v -3 0.8 1.1
v -3 2.6 1.1
v -2.6 0 1.1
v -2.6 0.5 1.1
v -2.6 0.8 1.1
v -2.6 2.6 1.1
v 2.6 0 1.1
v 2.6 0.5 1.1
v 2.6 0.8 1.1
v 2.6 2.6 1.1
v 3 0 1.1
v 3 0.5 1.1
v 3 0.8 1.1
v 3 2.6 1.1
v -3.1 2.6 0.8
v -3.1 2.8 0.8
v -3 2.5 0.8
v -3 2.6 0.8
v -3 2.8 0.8
v -3 2.9 0.8
v 3 2.5 0.8
v 3 2.6 0.8
v 3 2.8 0.8
v 3 2.9 0.8
v 3.1 2.6 0.8
v 3.1 2.8 0.8
v -3.1 2.6 -0.1
v -3.1 2.8 -0.1
v -3 2.5 -0.1
v -3 2.6 -0.1
v -3 2.8 -0.1
v -3 2.9 -0.1
v -2.6 0.5 -0.1
v -2.6 0.8 -0.1
v 2.6 0.5 -0.1
v 2.6 0.8 -0.1
v 3 2.5 -0.1
v 3 2.6 -0.1
v 3 2.8 -0.1
v 3 2.9 -0.1
v 3.1 2.6 -0.1
v 3.1 2.8 -0.1
v -3.1 2.6 -1
v -3.1 2.8 -1
v -3 2.5 -1
v -3 2.6 -1
v -3 2.8 -1
v -3 2.9 -1
v 3 2.5 -1
v 3 2.6 -1
v 3 2.8 -1
v 3 2.9 -1
v 3.1 2.6 -1
v 3.1 2.8 -1
v -2.6 2.5 -1.4
v -2.6 2.6 -1.4
v 2.6 2.5 -1.4
v 2.6 2.6 -1.4
v -3 0 -1.5
v -3 2.8 -1.5
v -2.6 0 -1.5
v -2.6 2.6 -1.5
v 2.6 0 -1.5
v 2.6 2.6 -1.5
v 3 0 -1.5
v 3 2.8 -1.5
v -3 0 1.5
v -2.6 0 1.5
v 2.6 0 1.5
v 3 0 1.5
v -3 0 1.1
v -2.6 0 1.1
v 2.6 0 1.1
v 3 0 1.1
v -3 0 -1.1
v -2.6 0 -1.1
v 2.6 0 -1.1
v 3 0 -1.1
v -3 0 -1.5
v -2.6 0 -1.5
v 2.6 0 -1.5
v 3 0 -1.5
v -3 0.5 1.1
v -2.6 0.5 1.1
v 2.6 0.5 1.1
v 3 0.5 1.1
v -2.6 0.5 0.1
v 2.6 0.5 0.1
v -2.6 0.5 -0.1
v 2.6 0.5 -0.1
v -3 0.5 -1.1
v -2.6 0.5 -1.1
v 2.6 0.5 -1.1
v 3 0.5 -1.1
v -2.6 2.5 1.4
v 2.6 2.5 1.4
v -2.6 2.5 1.2
v 2.6 2.5 1.2
v -3 2.5 1
v 3 2.5 1
v -3 2.5 0.8
v 3 2.5 0.8
v -3 2.5 0.1
v 3 2.5 0.1
v -3 2.5 -0.1
v 3 2.5 -0.1
v -3 2.5 -0.8
v 3 2.5 -0.8
v -3 2.5 -1
v 3 2.5 -1
v -2.6 2.5 -1.2
v 2.6 2.5 -1.2
v -2.6 2.5 -1.4
v 2.6 2.5 -1.4
v -2.6 2.6 1.5
v 2.6 2.6 1.5
v -2.6 2.6 1.4
v 2.6 2.6 1.4
v -2.6 2.6 1.2
v 2.6 2.6 1.2
v -3 2.6 1.1
v -2.6 2.6 1.1
v 2.6 2.6 1.1
v 3 2.6 1.1
v -3.1 2.6 1
v -3 2.6 1
v 3 2.6 1
v 3.1 2.6 1
v -3.1 2.6 0.8
v -3 2.6 0.8
v 3 2.6 0.8
v 3.1 2.6 0.8
v -3.1 2.6 0.1
v -3 2.6 0.1
v 3 2.6 0.1
v 3.1 2.6 0.1
v -3.1 2.6 -0.1
v -3 2.6 -0.1
v 3 2.6 -0.1
v 3.1 2.6 -0.1
v -3.1 2.6 -0.8
v -3 2.6 -0.8
v 3 2.6 -0.8
v 3.1 2.6 -0.8
v -3.1 2.6 -1
v -3 2.6 -1
v 3 2.6 -1
v 3.1 2.6 -1
v -3 2.6 -1.1
v -2.6 2.6 -1.1
v 2.6 2.6 -1.1
v 3 2.6 -1.1
v -2.6 2.6 -1.2
v 2.6 2.6 -1.2
v -2.6 2.6 -1.4
v 2.6 2.6 -1.4
v -2.6 2.6 -1.5
v 2.6 2.6 -1.5
v -3 0.8 1.1
v -2.6 0.8 1.1
v 2.6 0.8 1.1
v 3 0.8 1.1
v -2.6 0.8 0.1
v 2.6 0.8 0.1
v -2.6 0.8 -0.1
v 2.6 0.8 -0.1
v -3 0.8 -1.1
v -2.6 0.8 -1.1
v 2.6 0.8 -1.1
v 3 0.8 -1.1
v -3 2.8 1.5
v 3 2.8 1.5
v -3.1 2.8 1
v -3 2.8 1
v 3 2.8 1
v 3.1 2.8 1
v -3.1 2.8 0.8
v -3 2.8 0.8
v 3 2.8 0.8
v 3.1 2.8 0.8
v -3.1 2.8 0.1
v -3 2.8 0.1
v 3 2.8 0.1
v 3.1 2.8 0.1
v -3.1 2.8 -0.1
v -3 2.8 -0.1
v 3 2.8 -0.1
v 3.1 2.8 -0.1
v -3.1 2.8 -0.8
v -3 2.8 -0.8
v 3 2.8 -0.8
v 3.1 2.8 -0.8
v -3.1 2.8 -1
v -3 2.8 -1
v 3 2.8 -1
v 3.1 2.8 -1
v -3 2.8 -1.5
v 3 2.8 -1.5
v -3 2.9 1
v 3 2.9 1
v -3 2.9 0.8
v 3 2.9 0.8
v -3 2.9 0.1
v 3 2.9 0.1
v -3 2.9 -0.1
v 3 2.9 -0.1
v -3 2.9 -0.8
v 3 2.9 -0.8
v -3 2.9 -1
v 3 2.9 -1

# faces
f 7/2/1 2/2/1 1/2/1
f 8/2/1 2/2/1 7/2/1
f 9/2/1 4/2/1 3/2/1
f 10/2/1 4/2/1 9/2/1
f 11/2/1 6/2/1 5/2/1
f 12/2/1 6/2/1 11/2/1
f 17/1/1 14/1/1 13/1/1
f 18/1/1 16/1/1 15/1/1
f 19/1/1 17/1/1 13/1/1
f 19/1/1 18/1/1 17/1/1
f 20/1/1 16/1/1 18/1/1
f 20/1/1 18/1/1 19/1/1
f 27/1/1 19/1/1 13/1/1
f 28/2/1 22/2/1 21/2/1
f 29/2/1 22/2/1 28/2/1
f 30/2/1 24/2/1 23/2/1
f 31/2/1 24/2/1 30/2/1
f 32/2/1 26/2/1 25/2/1
f 33/2/1 26/2/1 32/2/1
f 34/1/1 16/1/1 20/1/1
f 35/1/1 27/1/1 13/1/1
f 35/1/1 28/1/1 27/1/1
f 36/1/1 28/1/1 35/1/1
f 37/1/1 30/1/1 29/1/1
f 38/1/1 30/1/1 37/1/1
f 39/1/1 32/1/1 31/1/1
f 40/1/1 32/1/1 39/1/1
f 41/1/1 34/1/1 33/1/1
f 42/1/1 16/1/1 34/1/1
f 42/1/1 34/1/1 41/1/1
f 43/2/1 37/2/1 36/2/1
f 44/2/1 37/2/1 43/2/1
f 45/2/1 39/2/1 38/2/1
f 46/2/1 39/2/1 45/2/1
f 47/2/1 41/2/1 40/2/1
f 48/2/1 41/2/1 47/2/1
f 53/1/1 50/1/1 49/1/1
f 56/1/1 52/1/1 51/1/1
f 57/1/1 54/1/1 53/1/1
f 57/1/1 53/1/1 49/1/1
f 58/1/1 54/1/1 57/1/1
f 59/1/1 56/1/1 55/1/1
f 60/1/1 52/1/1 56/1/1
f 60/1/1 56/1/1 59/1/1
f 61/1/1 57/1/1 49/1/1
f 62/1/1 57/1/1 61/1/1
f 63/1/1 52/1/1 60/1/1
f 64/1/1 52/1/1 63/1/1
f 65/1/1 61/1/1 49/1/1
f 66/1/1 61/1/1 65/1/1
f 67/1/1 57/1/1 62/1/1
f 68/1/1 57/1/1 67/1/1
f 69/1/1 63/1/1 60/1/1
f 70/1/1 63/1/1 69/1/1
f 71/1/1 52/1/1 64/1/1
f 72/1/1 52/1/1 71/1/1
f 73/1/2 74/1/2 77/1/2
f 75/1/2 76/1/2 80/1/2
f 77/1/2 78/1/2 81/1/2
f 73/1/2 77/1/2 81/1/2
f 81/1/2 78/1/2 82/1/2
f 79/1/2 80/1/2 83/1/2
f 80/1/2 76/1/2 84/1/2
f 83/1/2 80/1/2 84/1/2
f 73/1/2 81/1/2 85/1/2
f 85/1/2 81/1/2 86/1/2
f 84/1/2 76/1/2 87/1/2
f 87/1/2 76/1/2 88/1/2
f 73/1/2 85/1/2 89/1/2
f 89/1/2 85/1/2 90/1/2
f 86/1/2 81/1/2 91/1/2
f 91/1/2 81/1/2 92/1/2
f 84/1/2 87/1/2 93/1/2
f 93/1/2 87/1/2 94/1/2
f 88/1/2 76/1/2 95/1/2
f 95/1/2 76/1/2 96/1/2
f 97/1/2 98/1/2 101/1/2
f 99/1/2 100/1/2 102/1/2
f 97/1/2 101/1/2 103/1/2
f 101/1/2 102/1/2 103/1/2
f 102/1/2 100/1/2 104/1/2
f 103/1/2 102/1/2 104/1/2
f 97/1/2 103/1/2 111/1/2
f 105/2/2 106/2/2 112/2/2
f 112/2/2 106/2/2 113/2/2
f 107/2/2 108/2/2 114/2/2
f 114/2/2 108/2/2 115/2/2
f 109/2/2 110/2/2 116/2/2
f 116/2/2 110/2/2 117/2/2
f 104/1/2 100/1/2 118/1/2
f 97/1/2 111/1/2 119/1/2
f 111/1/2 112/1/2 119/1/2
f 119/1/2 112/1/2 120/1/2
f 113/1/2 114/1/2 121/1/2
f 121/1/2 114/1/2 122/1/2
f 115/1/2 116/1/2 123/1/2
f 123/1/2 116/1/2 124/1/2
f 117/1/2 118/1/2 125/1/2
f 118/1/2 100/1/2 126/1/2
f 125/1/2 118/1/2 126/1/2
f 120/2/2 121/2/2 127/2/2
f 127/2/2 121/2/2 128/2/2
f 122/2/2 123/2/2 129/2/2
f 129/2/2 123/2/2 130/2/2
f 124/2/2 125/2/2 131/2/2
f 131/2/2 125/2/2 132/2/2
f 133/2/2 134/2/2 139/2/2
f 139/2/2 134/2/2 140/2/2
f 135/2/2 136/2/2 141/2/2
f 141/2/2 136/2/2 142/2/2
f 137/2/2 138/2/2 143/2/2
f 143/2/2 138/2/2 144/2/2
f 147/1/3 146/1/3 145/1/3
f 148/1/3 146/1/3 147/1/3
f 150/1/3 146/1/3 148/1/3
f 151/1/3 150/1/3 149/1/3
f 152/1/3 146/1/3 150/1/3
f 152/1/3 150/1/3 151/1/3
f 155/1/3 154/1/3 153/1/3
f 156/1/3 154/1/3 155/1/3
f 160/2/3 158/2/3 157/2/3
f 161/2/3 158/2/3 160/2/3
f 163/2/3 160/2/3 159/2/3
f 164/2/3 160/2/3 163/2/3
f 165/2/3 162/2/3 161/2/3
f 166/2/3 162/2/3 165/2/3
f 167/2/3 165/2/3 164/2/3
f 168/2/3 165/2/3 167/2/3
f 172/2/3 170/2/3 169/2/3
f 173/2/3 170/2/3 172/2/3
f 177/1/3 176/1/3 175/1/3
f 178/1/3 176/1/3 177/1/3
f 179/2/3 172/2/3 171/2/3
f 180/2/3 172/2/3 179/2/3
f 181/2/3 174/2/3 173/2/3
f 182/2/3 174/2/3 181/2/3
f 183/2/3 181/2/3 180/2/3
f 184/2/3 181/2/3 183/2/3
f 188/2/3 186/2/3 185/2/3
f 189/2/3 186/2/3 188/2/3
f 191/2/3 188/2/3 187/2/3
f 192/2/3 188/2/3 191/2/3
f 193/2/3 190/2/3 189/2/3
f 194/2/3 190/2/3 193/2/3
f 195/2/3 193/2/3 192/2/3
f 196/2/3 193/2/3 195/2/3
f 201/1/3 198/1/3 197/1/3
f 202/1/3 198/1/3 201/1/3
f 203/1/3 200/1/3 199/1/3
f 204/1/3 200/1/3 203/1/3
f 209/1/3 206/1/3 205/1/3
f 210/1/3 206/1/3 209/1/3
f 211/1/3 208/1/3 207/1/3
f 212/1/3 208/1/3 211/1/3
f 215/1/3 214/1/3 213/1/3
f 216/1/3 214/1/3 215/1/3
f 217/1/4 218/1/4 219/1/4
f 219/1/4 218/1/4 220/1/4
f 221/1/4 222/1/4 225/1/4
f 225/1/4 222/1/4 226/1/4
f 223/1/4 224/1/4 227/1/4
f 227/1/4 224/1/4 228/1/4
f 229/1/4 230/1/4 233/1/4
f 233/1/4 230/1/4 234/1/4
f 231/1/4 232/1/4 235/1/4
f 235/1/4 232/1/4 236/1/4
f 237/2/4 238/2/4 240/2/4
f 240/2/4 238/2/4 241/2/4
f 239/2/4 240/2/4 243/2/4
f 243/2/4 240/2/4 244/2/4
f 241/2/4 242/2/4 245/2/4
f 245/2/4 242/2/4 246/2/4
f 244/2/4 245/2/4 247/2/4
f 247/2/4 245/2/4 248/2/4
f 249/2/4 250/2/4 252/2/4
f 252/2/4 250/2/4 253/2/4
f 255/1/4 256/1/4 257/1/4
f 257/1/4 256/1/4 258/1/4
f 251/2/4 252/2/4 259/2/4
f 259/2/4 252/2/4 260/2/4
f 253/2/4 254/2/4 261/2/4
f 261/2/4 254/2/4 262/2/4
f 260/2/4 261/2/4 263/2/4
f 263/2/4 261/2/4 264/2/4
f 265/2/4 266/2/4 268/2/4
f 268/2/4 266/2/4 269/2/4
f 267/2/4 268/2/4 271/2/4
f 271/2/4 268/2/4 272/2/4
f 269/2/4 270/2/4 273/2/4
f 273/2/4 270/2/4 274/2/4
f 272/2/4 273/2/4 275/2/4
f 275/2/4 273/2/4 276/2/4
f 277/1/4 278/1/4 279/1/4
f 279/1/4 278/1/4 280/1/4
f 281/1/4 282/1/4 283/1/4
f 283/1/4 282/1/4 284/1/4
f 284/1/4 282/1/4 286/1/4
f 285/1/4 286/1/4 287/1/4
f 286/1/4 282/1/4 288/1/4
f 287/1/4 286/1/4 288/1/4
f 293/1/5 290/1/5 289/1/5
f 294/1/5 290/1/5 293/1/5
f 295/1/5 292/1/5 291/1/5
f 296/1/5 292/1/5 295/1/5
f 301/1/5 298/1/5 297/1/5
f 302/1/5 298/1/5 301/1/5
f 303/1/5 300/1/5 299/1/5
f 304/1/5 300/1/5 303/1/5
f 309/1/5 306/1/5 305/1/5
f 310/1/5 308/1/5 307/1/5
f 311/1/5 309/1/5 305/1/5
f 311/1/5 310/1/5 309/1/5
f 312/1/5 308/1/5 310/1/5
f 312/1/5 310/1/5 311/1/5
f 313/1/5 311/1/5 305/1/5
f 314/1/5 311/1/5 313/1/5
f 315/1/5 308/1/5 312/1/5
f 316/1/5 308/1/5 315/1/5
f 319/1/5 318/1/5 317/1/5
f 320/1/5 318/1/5 319/1/5
f 323/2/5 322/2/5 321/2/5
f 324/2/5 322/2/5 323/2/5
f 327/2/5 326/2/5 325/2/5
f 328/2/5 326/2/5 327/2/5
f 331/2/5 330/2/5 329/2/5
f 332/2/5 330/2/5 331/2/5
f 335/1/5 334/1/5 333/1/5
f 336/1/5 334/1/5 335/1/5
f 339/1/5 338/1/5 337/1/5
f 340/1/5 338/1/5 339/1/5
f 344/1/5 342/1/5 341/1/5
f 345/1/5 342/1/5 344/1/5
f 348/1/5 345/1/5 344/1/5
f 348/1/5 346/1/5 345/1/5
f 348/1/5 344/1/5 343/1/5
f 349/1/5 346/1/5 348/1/5
f 351/2/5 348/2/5 347/2/5
f 352/2/5 348/2/5 351/2/5
f 353/2/5 350/2/5 349/2/5
f 354/2/5 350/2/5 353/2/5
f 356/1/5 353/1/5 352/1/5
f 357/1/5 353/1/5 356/1/5
f 359/2/5 356/2/5 355/2/5
f 360/2/5 356/2/5 359/2/5
f 361/2/5 358/2/5 357/2/5
f 362/2/5 358/2/5 361/2/5
f 364/1/5 361/1/5 360/1/5
f 365/1/5 361/1/5 364/1/5
f 367/2/5 364/2/5 363/2/5
f 368/2/5 364/2/5 367/2/5
f 369/2/5 366/2/5 365/2/5
f 370/2/5 366/2/5 369/2/5
f 371/1/5 369/1/5 368/1/5
f 372/1/5 369/1/5 371/1/5
f 373/1/5 369/1/5 372/1/5
f 374/1/5 369/1/5 373/1/5
f 375/1/5 373/1/5 372/1/5
f 376/1/5 373/1/5 375/1/5
f 379/1/5 378/1/5 377/1/5
f 380/1/5 378/1/5 379/1/5
f 381/1/6 382/1/6 385/1/6
f 383/1/6 384/1/6 386/1/6
f 381/1/6 385/1/6 387/1/6
f 385/1/6 386/1/6 387/1/6
f 386/1/6 384/1/6 388/1/6
f 387/1/6 386/1/6 388/1/6
f 381/1/6 387/1/6 389/1/6
f 389/1/6 387/1/6 390/1/6
f 388/1/6 384/1/6 391/1/6
f 391/1/6 384/1/6 392/1/6
f 393/1/6 394/1/6 396/1/6
f 396/1/6 394/1/6 397/1/6
f 395/2/6 396/2/6 399/2/6
f 399/2/6 396/2/6 400/2/6
f 397/2/6 398/2/6 401/2/6
f 401/2/6 398/2/6 402/2/6
f 400/1/6 401/1/6 404/1/6
f 404/1/6 401/1/6 405/1/6
f 403/2/6 404/2/6 407/2/6
f 407/2/6 404/2/6 408/2/6
f 405/2/6 406/2/6 409/2/6
f 409/2/6 406/2/6 410/2/6
f 408/1/6 409/1/6 412/1/6
f 412/1/6 409/1/6 413/1/6
f 411/2/6 412/2/6 415/2/6
f 415/2/6 412/2/6 416/2/6
f 413/2/6 414/2/6 417/2/6
f 417/2/6 414/2/6 418/2/6
f 416/1/6 417/1/6 419/1/6
f 419/1/6 417/1/6 420/1/6
f 421/2/6 422/2/6 423/2/6
f 423/2/6 422/2/6 424/2/6
f 425/2/6 426/2/6 427/2/6
f 427/2/6 426/2/6 428/2/6
f 429/2/6 430/2/6 431/2/6
f 431/2/6 430/2/6 432/2/6
