# MagicaVoxel @ Ephtracy

# group
o 

# material
mtllib Log Raiser Small 1.mtl
usemtl palette

# normals
vn -1 0 0
vn 1 0 0
vn 0 0 1
vn 0 0 -1
vn 0 -1 0
vn 0 1 0

# texcoords
vt 0.166016 0.5
vt 0.169922 0.5
vt 0.181641 0.5
vt 0.701172 0.5

# verts
v -0.6 6.8 -6
v -0.6 6.8 -6.5
v -0.6 7.5 -6
v -0.6 7.5 -6.5
v -0.5 6.8 -5.8
v -0.5 6.8 -6
v -0.5 6.8 -6.5
v -0.5 6.8 -6.8
v -0.5 7.5 -5.8
v -0.5 7.5 -6
v -0.5 7.5 -6.5
v -0.5 7.5 -6.8
v -0.5 13.6 -6
v -0.5 13.6 -6.5
v -0.4 6.8 -5.6
v -0.4 6.8 -5.8
v -0.4 6.8 -6.8
v -0.4 6.8 -7
v -0.4 7.5 -5.8
v -0.4 7.5 -6
v -0.4 7.5 -6.5
v -0.4 7.5 -6.8
v -0.4 13.6 -5.6
v -0.4 13.6 -6
v -0.4 13.6 -6.5
v -0.4 13.6 -7
v -0.2 6.8 -5.4
v -0.2 6.8 -5.6
v -0.2 6.8 -7
v -0.2 6.8 -7.2
v -0.2 7.5 -7.1
v -0.2 7.5 -7.2
v -0.2 13.6 -5.4
v -0.2 13.6 -5.6
v -0.2 13.6 -7
v -0.2 13.6 -7.1
v -0.1 7.5 -7.1
v -0.1 7.5 -7.2
v -0.1 13.6 -7.1
v -0.1 13.6 -7.2
v -5.96046e-08 6.8 -5.3
v -5.96046e-08 6.8 -5.4
v -5.96046e-08 6.8 -7.2
v -5.96046e-08 6.8 -7.3
v -5.96046e-08 7.5 -5.3
v -5.96046e-08 7.5 -5.4
v -5.96046e-08 7.5 -7.2
v -5.96046e-08 7.5 -7.3
v 0.2 6.8 -5.2
v 0.2 6.8 -5.3
v 0.2 6.8 -7.3
v 0.2 6.8 -7.4
v 0.2 7.5 -5.2
v 0.2 7.5 -5.3
v 0.2 7.5 -5.4
v 0.2 7.5 -7.2
v 0.2 7.5 -7.3
v 0.2 7.5 -7.4
v 0.2 13.6 -5.3
v 0.2 13.6 -5.4
v 0.2 13.6 -7.2
v 0.2 13.6 -7.3
v 0.7 6.8 -5.2
v 0.7 6.8 -5.3
v 0.7 6.8 -7.3
v 0.7 6.8 -7.4
v 0.7 7.5 -5.2
v 0.7 7.5 -5.3
v 0.7 7.5 -5.4
v 0.7 7.5 -7.2
v 0.7 7.5 -7.3
v 0.7 7.5 -7.4
v 0.7 13.6 -5.3
v 0.7 13.6 -5.4
v 0.7 13.6 -7.2
v 0.7 13.6 -7.3
v 1 6.8 -5.3
v 1 6.8 -5.4
v 1 6.8 -7.2
v 1 6.8 -7.3
v 1 7.5 -5.3
v 1 7.5 -5.4
v 1 7.5 -7.1
v 1 7.5 -7.2
v 1 7.5 -7.3
v 1 13.6 -7.1
v 1 13.6 -7.2
v 1.2 6.8 -5.4
v 1.2 6.8 -5.6
v 1.2 6.8 -7
v 1.2 6.8 -7.2
v 1.2 7.5 -7.1
v 1.2 7.5 -7.2
v 1.2 13.6 -5.4
v 1.2 13.6 -5.6
v 1.2 13.6 -7
v 1.2 13.6 -7.1
v 1.3 7.5 -5.6
v 1.3 7.5 -5.7
v 1.3 7.5 -6.8
v 1.3 7.5 -7
v 1.3 13.6 -5.6
v 1.3 13.6 -5.7
v 1.3 13.6 -6.8
v 1.3 13.6 -7
v 1.4 6.8 -5.6
v 1.4 6.8 -5.8
v 1.4 6.8 -6.8
v 1.4 6.8 -7
v 1.4 7.5 -5.6
v 1.4 7.5 -5.7
v 1.4 7.5 -5.8
v 1.4 7.5 -6
v 1.4 7.5 -6.5
v 1.4 7.5 -6.8
v 1.4 7.5 -7
v 1.4 13.6 -5.7
v 1.4 13.6 -6
v 1.4 13.6 -6.5
v 1.4 13.6 -6.8
v 1.5 6.8 -5.8
v 1.5 6.8 -6
v 1.5 6.8 -6.5
v 1.5 6.8 -6.8
v 1.5 7.5 -5.8
v 1.5 7.5 -6
v 1.5 7.5 -6.5
v 1.5 7.5 -6.8
v 1.5 13.6 -6
v 1.5 13.6 -6.5
v 1.6 6.8 -6
v 1.6 6.8 -6.5
v 1.6 7.5 -6
v 1.6 7.5 -6.5
v 0.2 6.8 -5.2
v 0.2 7.5 -5.2
v 0.7 6.8 -5.2
v 0.7 7.5 -5.2
v -5.96046e-08 6.8 -5.3
v -5.96046e-08 7.5 -5.3
v 0.2 6.8 -5.3
v 0.2 7.5 -5.3
v 0.2 13.6 -5.3
v 0.7 6.8 -5.3
v 0.7 7.5 -5.3
v 0.7 13.6 -5.3
v 1 6.8 -5.3
v 1 7.5 -5.3
v -0.2 6.8 -5.4
v -0.2 13.6 -5.4
v -5.96046e-08 6.8 -5.4
v -5.96046e-08 7.5 -5.4
v 0.2 7.5 -5.4
v 0.2 13.6 -5.4
v 0.7 7.5 -5.4
v 0.7 13.6 -5.4
v 1 6.8 -5.4
v 1 7.5 -5.4
v 1.2 6.8 -5.4
v 1.2 13.6 -5.4
v -0.4 6.8 -5.6
v -0.4 13.6 -5.6
v -0.2 6.8 -5.6
v -0.2 13.6 -5.6
v 1.2 6.8 -5.6
v 1.2 13.6 -5.6
v 1.3 7.5 -5.6
v 1.3 13.6 -5.6
v 1.4 6.8 -5.6
v 1.4 7.5 -5.6
v 1.3 7.5 -5.7
v 1.3 13.6 -5.7
v 1.4 7.5 -5.7
v 1.4 13.6 -5.7
v -0.5 6.8 -5.8
v -0.5 7.5 -5.8
v -0.4 6.8 -5.8
v -0.4 7.5 -5.8
v 1.4 6.8 -5.8
v 1.4 7.5 -5.8
v 1.5 6.8 -5.8
v 1.5 7.5 -5.8
v -0.6 6.8 -6
v -0.6 7.5 -6
v -0.5 6.8 -6
v -0.5 7.5 -6
v -0.5 13.6 -6
v -0.4 7.5 -6
v -0.4 13.6 -6
v 1.4 7.5 -6
v 1.4 13.6 -6
v 1.5 6.8 -6
v 1.5 7.5 -6
v 1.5 13.6 -6
v 1.6 6.8 -6
v 1.6 7.5 -6
v -0.6 6.8 -6.5
v -0.6 7.5 -6.5
v -0.5 6.8 -6.5
v -0.5 7.5 -6.5
v -0.5 13.6 -6.5
v -0.4 7.5 -6.5
v -0.4 13.6 -6.5
v 1.4 7.5 -6.5
v 1.4 13.6 -6.5
v 1.5 6.8 -6.5
v 1.5 7.5 -6.5
v 1.5 13.6 -6.5
v 1.6 6.8 -6.5
v 1.6 7.5 -6.5
v -0.5 6.8 -6.8
v -0.5 7.5 -6.8
v -0.4 6.8 -6.8
v -0.4 7.5 -6.8
v 1.3 7.5 -6.8
v 1.3 13.6 -6.8
v 1.4 6.8 -6.8
v 1.4 7.5 -6.8
v 1.4 13.6 -6.8
v 1.5 6.8 -6.8
v 1.5 7.5 -6.8
v -0.4 6.8 -7
v -0.4 13.6 -7
v -0.2 6.8 -7
v -0.2 13.6 -7
v 1.2 6.8 -7
v 1.2 13.6 -7
v 1.3 7.5 -7
v 1.3 13.6 -7
v 1.4 6.8 -7
v 1.4 7.5 -7
v -0.2 7.5 -7.1
v -0.2 13.6 -7.1
v -0.1 7.5 -7.1
v -0.1 13.6 -7.1
v 1 7.5 -7.1
v 1 13.6 -7.1
v 1.2 7.5 -7.1
v 1.2 13.6 -7.1
v -0.2 6.8 -7.2
v -0.2 7.5 -7.2
v -0.1 7.5 -7.2
v -0.1 13.6 -7.2
v -5.96046e-08 6.8 -7.2
v -5.96046e-08 7.5 -7.2
v 0.2 7.5 -7.2
v 0.2 13.6 -7.2
v 0.7 7.5 -7.2
v 0.7 13.6 -7.2
v 1 6.8 -7.2
v 1 7.5 -7.2
v 1 13.6 -7.2
v 1.2 6.8 -7.2
v 1.2 7.5 -7.2
v -5.96046e-08 6.8 -7.3
v -5.96046e-08 7.5 -7.3
v 0.2 6.8 -7.3
v 0.2 7.5 -7.3
v 0.2 13.6 -7.3
v 0.7 6.8 -7.3
v 0.7 7.5 -7.3
v 0.7 13.6 -7.3
v 1 6.8 -7.3
v 1 7.5 -7.3
v 0.2 6.8 -7.4
v 0.2 7.5 -7.4
v 0.7 6.8 -7.4
v 0.7 7.5 -7.4
v 0.2 6.8 -5.2
v 0.7 6.8 -5.2
v -5.96046e-08 6.8 -5.3
v 0.2 6.8 -5.3
v 0.7 6.8 -5.3
v 1 6.8 -5.3
v -0.2 6.8 -5.4
v -5.96046e-08 6.8 -5.4
v 1 6.8 -5.4
v 1.2 6.8 -5.4
v -0.4 6.8 -5.6
v -0.2 6.8 -5.6
v 1.2 6.8 -5.6
v 1.4 6.8 -5.6
v -0.5 6.8 -5.8
v -0.4 6.8 -5.8
v 1.4 6.8 -5.8
v 1.5 6.8 -5.8
v -0.6 6.8 -6
v -0.5 6.8 -6
v 1.5 6.8 -6
v 1.6 6.8 -6
v -0.6 6.8 -6.5
v -0.5 6.8 -6.5
v 1.5 6.8 -6.5
v 1.6 6.8 -6.5
v -0.5 6.8 -6.8
v -0.4 6.8 -6.8
v 1.4 6.8 -6.8
v 1.5 6.8 -6.8
v -0.4 6.8 -7
v -0.2 6.8 -7
v 1.2 6.8 -7
v 1.4 6.8 -7
v -0.2 6.8 -7.2
v -5.96046e-08 6.8 -7.2
v 1 6.8 -7.2
v 1.2 6.8 -7.2
v -5.96046e-08 6.8 -7.3
v 0.2 6.8 -7.3
v 0.7 6.8 -7.3
v 1 6.8 -7.3
v 0.2 6.8 -7.4
v 0.7 6.8 -7.4
v 0.2 7.5 -5.2
v 0.7 7.5 -5.2
v -5.96046e-08 7.5 -5.3
v 0.2 7.5 -5.3
v 0.7 7.5 -5.3
v 1 7.5 -5.3
v -5.96046e-08 7.5 -5.4
v 0.2 7.5 -5.4
v 0.7 7.5 -5.4
v 1 7.5 -5.4
v 1.3 7.5 -5.6
v 1.4 7.5 -5.6
v 1.3 7.5 -5.7
v 1.4 7.5 -5.7
v -0.5 7.5 -5.8
v -0.4 7.5 -5.8
v 1.4 7.5 -5.8
v 1.5 7.5 -5.8
v -0.6 7.5 -6
v -0.5 7.5 -6
v -0.4 7.5 -6
v 1.4 7.5 -6
v 1.5 7.5 -6
v 1.6 7.5 -6
v -0.6 7.5 -6.5
v -0.5 7.5 -6.5
v -0.4 7.5 -6.5
v 1.4 7.5 -6.5
v 1.5 7.5 -6.5
v 1.6 7.5 -6.5
v -0.5 7.5 -6.8
v -0.4 7.5 -6.8
v 1.3 7.5 -6.8
v 1.4 7.5 -6.8
v 1.5 7.5 -6.8
v 1.3 7.5 -7
v 1.4 7.5 -7
v -0.2 7.5 -7.1
v -0.1 7.5 -7.1
v 1 7.5 -7.1
v 1.2 7.5 -7.1
v -0.2 7.5 -7.2
v -0.1 7.5 -7.2
v -5.96046e-08 7.5 -7.2
v 0.2 7.5 -7.2
v 0.7 7.5 -7.2
v 1 7.5 -7.2
v 1.2 7.5 -7.2
v -5.96046e-08 7.5 -7.3
v 0.2 7.5 -7.3
v 0.7 7.5 -7.3
v 1 7.5 -7.3
v 0.2 7.5 -7.4
v 0.7 7.5 -7.4
v 0.2 13.6 -5.3
v 0.7 13.6 -5.3
v -0.2 13.6 -5.4
v 0.2 13.6 -5.4
v 0.3 13.6 -5.4
v 0.7 13.6 -5.4
v 1.2 13.6 -5.4
v -0.1 13.6 -5.5
v 0.1 13.6 -5.5
v 0.2 13.6 -5.5
v 0.7 13.6 -5.5
v 0.9 13.6 -5.5
v 1 13.6 -5.5
v -0.4 13.6 -5.6
v -0.2 13.6 -5.6
v -0.1 13.6 -5.6
v -5.96046e-08 13.6 -5.6
v 1 13.6 -5.6
v 1.1 13.6 -5.6
v 1.2 13.6 -5.6
v 1.3 13.6 -5.6
v -0.3 13.6 -5.7
v -0.2 13.6 -5.7
v -0.1 13.6 -5.7
v 1 13.6 -5.7
v 1.1 13.6 -5.7
v 1.2 13.6 -5.7
v 1.3 13.6 -5.7
v 1.4 13.6 -5.7
v -0.2 13.6 -5.8
v -5.96046e-08 13.6 -5.8
v 0.1 13.6 -5.8
v 0.3 13.6 -5.8
v 0.7 13.6 -5.8
v 0.9 13.6 -5.8
v 1 13.6 -5.8
v 1.1 13.6 -5.8
v 1.2 13.6 -5.8
v -0.3 13.6 -5.9
v -5.96046e-08 13.6 -5.9
v 0.1 13.6 -5.9
v 0.2 13.6 -5.9
v 0.7 13.6 -5.9
v 0.9 13.6 -5.9
v 1 13.6 -5.9
v 1.1 13.6 -5.9
v 1.3 13.6 -5.9
v -0.5 13.6 -6
v -0.4 13.6 -6
v -0.3 13.6 -6
v 0.1 13.6 -6
v 0.2 13.6 -6
v 0.3 13.6 -6
v 0.7 13.6 -6
v 0.9 13.6 -6
v 1.3 13.6 -6
v 1.4 13.6 -6
v 1.5 13.6 -6
v -0.4 13.6 -6.1
v -5.96046e-08 13.6 -6.1
v 0.2 13.6 -6.1
v 0.4 13.6 -6.1
v 0.6 13.6 -6.1
v 0.7 13.6 -6.1
v 1 13.6 -6.1
v 1.1 13.6 -6.1
v 1.3 13.6 -6.1
v 0.3 13.6 -6.2
v 0.4 13.6 -6.2
v 0.6 13.6 -6.2
v 0.7 13.6 -6.2
v 0.3 13.6 -6.4
v 0.4 13.6 -6.4
v 0.6 13.6 -6.4
v 0.7 13.6 -6.4
v -0.5 13.6 -6.5
v -0.4 13.6 -6.5
v -0.3 13.6 -6.5
v -5.96046e-08 13.6 -6.5
v 0.1 13.6 -6.5
v 0.2 13.6 -6.5
v 0.3 13.6 -6.5
v 0.4 13.6 -6.5
v 0.6 13.6 -6.5
v 0.9 13.6 -6.5
v 1 13.6 -6.5
v 1.1 13.6 -6.5
v 1.3 13.6 -6.5
v 1.4 13.6 -6.5
v 1.5 13.6 -6.5
v -0.3 13.6 -6.7
v -5.96046e-08 13.6 -6.7
v 0.1 13.6 -6.7
v 0.2 13.6 -6.7
v 0.7 13.6 -6.7
v 0.9 13.6 -6.7
v 1 13.6 -6.7
v 1.1 13.6 -6.7
v 1.3 13.6 -6.7
v -0.3 13.6 -6.8
v -0.2 13.6 -6.8
v -0.1 13.6 -6.8
v -5.96046e-08 13.6 -6.8
v 0.1 13.6 -6.8
v 0.3 13.6 -6.8
v 0.7 13.6 -6.8
v 0.9 13.6 -6.8
v 1 13.6 -6.8
v 1.1 13.6 -6.8
v 1.2 13.6 -6.8
v 1.3 13.6 -6.8
v 1.4 13.6 -6.8
v -0.2 13.6 -6.9
v -0.1 13.6 -6.9
v -5.96046e-08 13.6 -6.9
v 0.1 13.6 -6.9
v 0.3 13.6 -6.9
v 0.7 13.6 -6.9
v 0.9 13.6 -6.9
v 1 13.6 -6.9
v 1.1 13.6 -6.9
v 1.2 13.6 -6.9
v -0.4 13.6 -7
v -0.2 13.6 -7
v -0.1 13.6 -7
v -5.96046e-08 13.6 -7
v 1 13.6 -7
v 1.1 13.6 -7
v 1.2 13.6 -7
v 1.3 13.6 -7
v -0.2 13.6 -7.1
v -0.1 13.6 -7.1
v 0.1 13.6 -7.1
v 0.2 13.6 -7.1
v 0.3 13.6 -7.1
v 0.7 13.6 -7.1
v 0.9 13.6 -7.1
v 1 13.6 -7.1
v 1.2 13.6 -7.1
v -0.1 13.6 -7.2
v 0.2 13.6 -7.2
v 0.7 13.6 -7.2
v 1 13.6 -7.2
v 0.2 13.6 -7.3
v 0.7 13.6 -7.3

# faces
f 3/4/1 2/4/1 1/4/1
f 4/4/1 2/4/1 3/4/1
f 9/4/1 6/4/1 5/4/1
f 10/4/1 6/4/1 9/4/1
f 11/4/1 8/4/1 7/4/1
f 12/4/1 8/4/1 11/4/1
f 13/4/1 11/4/1 10/4/1
f 14/4/1 11/4/1 13/4/1
f 19/4/1 16/4/1 15/4/1
f 22/4/1 18/4/1 17/4/1
f 23/4/1 20/4/1 19/4/1
f 23/4/1 19/4/1 15/4/1
f 24/4/1 20/4/1 23/4/1
f 25/4/1 22/4/1 21/4/1
f 26/4/1 18/4/1 22/4/1
f 26/4/1 22/4/1 25/4/1
f 31/4/1 30/4/1 29/4/1
f 32/4/1 30/4/1 31/4/1
f 33/4/1 28/4/1 27/4/1
f 34/4/1 28/4/1 33/4/1
f 35/4/1 31/4/1 29/4/1
f 36/4/1 31/4/1 35/4/1
f 39/4/1 38/4/1 37/4/1
f 40/4/1 38/4/1 39/4/1
f 45/4/1 42/4/1 41/4/1
f 46/4/1 42/4/1 45/4/1
f 47/4/1 44/4/1 43/4/1
f 48/4/1 44/4/1 47/4/1
f 53/4/1 50/4/1 49/4/1
f 54/4/1 50/4/1 53/4/1
f 57/4/1 52/4/1 51/4/1
f 58/4/1 52/4/1 57/4/1
f 59/4/1 55/4/1 54/4/1
f 60/4/1 55/4/1 59/4/1
f 61/4/1 57/4/1 56/4/1
f 62/4/1 57/4/1 61/4/1
f 63/4/2 64/4/2 67/4/2
f 67/4/2 64/4/2 68/4/2
f 65/4/2 66/4/2 71/4/2
f 71/4/2 66/4/2 72/4/2
f 68/4/2 69/4/2 73/4/2
f 73/4/2 69/4/2 74/4/2
f 70/4/2 71/4/2 75/4/2
f 75/4/2 71/4/2 76/4/2
f 77/4/2 78/4/2 81/4/2
f 81/4/2 78/4/2 82/4/2
f 79/4/2 80/4/2 84/4/2
f 84/4/2 80/4/2 85/4/2
f 83/4/2 84/4/2 86/4/2
f 86/4/2 84/4/2 87/4/2
f 90/4/2 91/4/2 92/4/2
f 92/4/2 91/4/2 93/4/2
f 88/4/2 89/4/2 94/4/2
f 94/4/2 89/4/2 95/4/2
f 90/4/2 92/4/2 96/4/2
f 96/4/2 92/4/2 97/4/2
f 98/4/2 99/4/2 102/4/2
f 102/4/2 99/4/2 103/4/2
f 100/4/2 101/4/2 104/4/2
f 104/4/2 101/4/2 105/4/2
f 106/4/2 107/4/2 110/4/2
f 110/4/2 107/4/2 111/4/2
f 111/4/2 107/4/2 112/4/2
f 108/4/2 109/4/2 115/4/2
f 115/4/2 109/4/2 116/4/2
f 112/4/2 113/4/2 117/4/2
f 111/4/2 112/4/2 117/4/2
f 117/4/2 113/4/2 118/4/2
f 114/4/2 115/4/2 119/4/2
f 119/4/2 115/4/2 120/4/2
f 121/4/2 122/4/2 125/4/2
f 125/4/2 122/4/2 126/4/2
f 123/4/2 124/4/2 127/4/2
f 127/4/2 124/4/2 128/4/2
f 126/4/2 127/4/2 129/4/2
f 129/4/2 127/4/2 130/4/2
f 131/4/2 132/4/2 133/4/2
f 133/4/2 132/4/2 134/4/2
f 137/4/3 136/4/3 135/4/3
f 138/4/3 136/4/3 137/4/3
f 141/4/3 140/4/3 139/4/3
f 142/4/3 140/4/3 141/4/3
f 145/4/3 143/4/3 142/4/3
f 146/4/3 143/4/3 145/4/3
f 147/4/3 145/4/3 144/4/3
f 148/4/3 145/4/3 147/4/3
f 151/4/3 150/4/3 149/4/3
f 152/4/3 150/4/3 151/4/3
f 153/4/3 150/4/3 152/4/3
f 154/4/3 150/4/3 153/4/3
f 158/4/3 156/4/3 155/4/3
f 159/4/3 158/4/3 157/4/3
f 160/4/3 156/4/3 158/4/3
f 160/4/3 158/4/3 159/4/3
f 163/4/3 162/4/3 161/4/3
f 164/4/3 162/4/3 163/4/3
f 167/4/3 166/4/3 165/4/3
f 168/4/3 166/4/3 167/4/3
f 169/4/3 167/4/3 165/4/3
f 170/4/3 167/4/3 169/4/3
f 173/4/3 172/4/3 171/4/3
f 174/4/3 172/4/3 173/4/3
f 177/4/3 176/4/3 175/4/3
f 178/4/3 176/4/3 177/4/3
f 181/4/3 180/4/3 179/4/3
f 182/4/3 180/4/3 181/4/3
f 185/4/3 184/4/3 183/4/3
f 186/4/3 184/4/3 185/4/3
f 188/4/3 187/4/3 186/4/3
f 189/4/3 187/4/3 188/4/3
f 193/4/3 191/4/3 190/4/3
f 194/4/3 191/4/3 193/4/3
f 195/4/3 193/4/3 192/4/3
f 196/4/3 193/4/3 195/4/3
f 197/4/4 198/4/4 199/4/4
f 199/4/4 198/4/4 200/4/4
f 200/4/4 201/4/4 202/4/4
f 202/4/4 201/4/4 203/4/4
f 204/4/4 205/4/4 207/4/4
f 207/4/4 205/4/4 208/4/4
f 206/4/4 207/4/4 209/4/4
f 209/4/4 207/4/4 210/4/4
f 211/4/4 212/4/4 213/4/4
f 213/4/4 212/4/4 214/4/4
f 215/4/4 216/4/4 218/4/4
f 218/4/4 216/4/4 219/4/4
f 217/4/4 218/4/4 220/4/4
f 220/4/4 218/4/4 221/4/4
f 222/4/4 223/4/4 224/4/4
f 224/4/4 223/4/4 225/4/4
f 226/4/4 227/4/4 228/4/4
f 228/4/4 227/4/4 229/4/4
f 226/4/4 228/4/4 230/4/4
f 230/4/4 228/4/4 231/4/4
f 232/4/4 233/4/4 234/4/4
f 234/4/4 233/4/4 235/4/4
f 236/4/4 237/4/4 238/4/4
f 238/4/4 237/4/4 239/4/4
f 240/4/4 241/4/4 242/4/4
f 240/4/4 242/4/4 244/4/4
f 242/4/4 243/4/4 244/4/4
f 244/4/4 243/4/4 245/4/4
f 245/4/4 243/4/4 246/4/4
f 246/4/4 243/4/4 247/4/4
f 248/4/4 249/4/4 251/4/4
f 251/4/4 249/4/4 252/4/4
f 250/4/4 251/4/4 253/4/4
f 253/4/4 251/4/4 254/4/4
f 255/4/4 256/4/4 257/4/4
f 257/4/4 256/4/4 258/4/4
f 258/4/4 259/4/4 261/4/4
f 261/4/4 259/4/4 262/4/4
f 260/4/4 261/4/4 263/4/4
f 263/4/4 261/4/4 264/4/4
f 265/4/4 266/4/4 267/4/4
f 267/4/4 266/4/4 268/4/4
f 272/4/5 270/4/5 269/4/5
f 273/4/5 270/4/5 272/4/5
f 276/4/5 272/4/5 271/4/5
f 276/4/5 274/4/5 273/4/5
f 276/4/5 273/4/5 272/4/5
f 277/4/5 274/4/5 276/4/5
f 280/4/5 276/4/5 275/4/5
f 280/4/5 278/4/5 277/4/5
f 280/4/5 277/4/5 276/4/5
f 281/4/5 278/4/5 280/4/5
f 284/4/5 280/4/5 279/4/5
f 284/4/5 282/4/5 281/4/5
f 284/4/5 281/4/5 280/4/5
f 285/4/5 282/4/5 284/4/5
f 288/4/5 284/4/5 283/4/5
f 288/4/5 286/4/5 285/4/5
f 288/4/5 285/4/5 284/4/5
f 289/4/5 286/4/5 288/4/5
f 291/4/5 288/4/5 287/4/5
f 291/4/5 290/4/5 289/4/5
f 291/4/5 289/4/5 288/4/5
f 292/4/5 290/4/5 291/4/5
f 293/4/5 290/4/5 292/4/5
f 294/4/5 290/4/5 293/4/5
f 295/4/5 293/4/5 292/4/5
f 296/4/5 293/4/5 295/4/5
f 297/4/5 293/4/5 296/4/5
f 298/4/5 293/4/5 297/4/5
f 299/4/5 297/4/5 296/4/5
f 300/4/5 297/4/5 299/4/5
f 301/4/5 297/4/5 300/4/5
f 302/4/5 297/4/5 301/4/5
f 303/4/5 301/4/5 300/4/5
f 304/4/5 301/4/5 303/4/5
f 305/4/5 301/4/5 304/4/5
f 306/4/5 301/4/5 305/4/5
f 307/4/5 305/4/5 304/4/5
f 308/4/5 305/4/5 307/4/5
f 309/4/5 305/4/5 308/4/5
f 310/4/5 305/4/5 309/4/5
f 311/4/5 309/4/5 308/4/5
f 312/4/5 309/4/5 311/4/5
f 313/4/6 314/4/6 316/4/6
f 316/4/6 314/4/6 317/4/6
f 315/4/6 316/4/6 319/4/6
f 319/4/6 316/4/6 320/4/6
f 317/4/6 318/4/6 321/4/6
f 321/4/6 318/4/6 322/4/6
f 323/4/6 324/4/6 325/4/6
f 325/4/6 324/4/6 326/4/6
f 327/4/6 328/4/6 332/4/6
f 332/4/6 328/4/6 333/4/6
f 329/4/6 330/4/6 334/4/6
f 334/4/6 330/4/6 335/4/6
f 331/4/6 332/4/6 337/4/6
f 337/4/6 332/4/6 338/4/6
f 335/4/6 336/4/6 341/4/6
f 341/4/6 336/4/6 342/4/6
f 338/4/6 339/4/6 343/4/6
f 343/4/6 339/4/6 344/4/6
f 340/4/6 341/4/6 346/4/6
f 346/4/6 341/4/6 347/4/6
f 345/4/6 346/4/6 348/4/6
f 348/4/6 346/4/6 349/4/6
f 350/4/6 351/4/6 354/4/6
f 354/4/6 351/4/6 355/4/6
f 352/4/6 353/4/6 359/4/6
f 359/4/6 353/4/6 360/4/6
f 356/4/6 357/4/6 361/4/6
f 361/4/6 357/4/6 362/4/6
f 358/4/6 359/4/6 363/4/6
f 363/4/6 359/4/6 364/4/6
f 362/4/6 363/4/6 365/4/6
f 365/4/6 363/4/6 366/4/6
f 367/4/6 368/4/6 370/4/6
f 370/4/6 368/4/6 371/4/6
f 371/4/6 368/4/6 372/4/6
f 369/4/6 370/4/6 374/4/6
f 374/4/6 370/4/6 375/4/6
f 370/1/6 371/1/6 376/1/6
f 375/4/6 370/4/6 376/4/6
f 372/4/6 373/4/6 377/4/6
f 371/3/6 372/3/6 377/3/6
f 377/4/6 373/4/6 378/4/6
f 378/4/6 373/4/6 379/4/6
f 369/4/6 374/4/6 381/4/6
f 374/3/6 375/3/6 382/3/6
f 381/4/6 374/4/6 382/4/6
f 382/3/6 375/3/6 383/3/6
f 379/4/6 373/4/6 384/4/6
f 378/3/6 379/3/6 384/3/6
f 384/4/6 373/4/6 385/4/6
f 385/4/6 373/4/6 386/4/6
f 380/4/6 381/4/6 388/4/6
f 381/3/6 382/3/6 389/3/6
f 388/4/6 381/4/6 389/4/6
f 382/1/6 383/1/6 390/1/6
f 389/3/6 382/3/6 390/3/6
f 378/3/6 384/3/6 391/3/6
f 384/1/6 385/1/6 391/1/6
f 385/3/6 386/3/6 392/3/6
f 391/1/6 385/1/6 392/1/6
f 386/4/6 387/4/6 393/4/6
f 392/3/6 386/3/6 393/3/6
f 393/4/6 387/4/6 394/4/6
f 388/3/6 389/3/6 396/3/6
f 389/1/6 390/1/6 396/1/6
f 383/3/6 375/3/6 397/3/6
f 396/1/6 390/1/6 397/1/6
f 390/1/6 383/1/6 397/1/6
f 375/1/6 376/1/6 398/1/6
f 397/3/6 375/3/6 398/3/6
f 376/1/6 371/1/6 399/1/6
f 398/1/6 376/1/6 399/1/6
f 371/3/6 377/3/6 399/3/6
f 377/1/6 378/1/6 400/1/6
f 399/3/6 377/3/6 400/3/6
f 391/3/6 392/3/6 401/3/6
f 400/1/6 378/1/6 401/1/6
f 378/3/6 391/3/6 401/3/6
f 401/3/6 392/3/6 402/3/6
f 392/1/6 393/1/6 403/1/6
f 402/3/6 392/3/6 403/3/6
f 393/3/6 394/3/6 404/3/6
f 403/1/6 393/1/6 404/1/6
f 397/3/6 398/3/6 405/3/6
f 396/3/6 397/3/6 405/3/6
f 388/3/6 396/3/6 405/3/6
f 398/3/6 399/3/6 405/3/6
f 380/4/6 388/4/6 405/4/6
f 405/3/6 399/3/6 406/3/6
f 406/3/6 399/3/6 407/3/6
f 407/3/6 399/3/6 408/3/6
f 399/2/6 400/2/6 409/2/6
f 400/3/6 401/3/6 409/3/6
f 401/3/6 402/3/6 409/3/6
f 409/3/6 402/3/6 410/3/6
f 402/1/6 403/1/6 411/1/6
f 410/3/6 402/3/6 411/3/6
f 403/3/6 404/3/6 412/3/6
f 411/1/6 403/1/6 412/1/6
f 404/3/6 394/3/6 413/3/6
f 412/3/6 404/3/6 413/3/6
f 394/4/6 395/4/6 413/4/6
f 380/4/6 405/4/6 415/4/6
f 405/1/6 406/1/6 416/1/6
f 415/4/6 405/4/6 416/4/6
f 407/2/6 408/2/6 417/2/6
f 406/3/6 407/3/6 417/3/6
f 408/3/6 399/3/6 418/3/6
f 417/2/6 408/2/6 418/2/6
f 409/2/6 410/2/6 419/2/6
f 418/3/6 399/3/6 419/3/6
f 399/2/6 409/2/6 419/2/6
f 419/2/6 410/2/6 420/2/6
f 411/3/6 412/3/6 421/3/6
f 420/2/6 410/2/6 421/2/6
f 410/3/6 411/3/6 421/3/6
f 413/4/6 395/4/6 422/4/6
f 412/1/6 413/1/6 422/1/6
f 422/4/6 395/4/6 423/4/6
f 415/1/6 416/1/6 425/1/6
f 414/4/6 415/4/6 425/4/6
f 406/3/6 417/3/6 426/3/6
f 425/1/6 416/1/6 426/1/6
f 416/1/6 406/1/6 426/1/6
f 417/3/6 418/3/6 426/3/6
f 419/2/6 420/2/6 427/2/6
f 426/3/6 418/3/6 427/3/6
f 418/2/6 419/2/6 427/2/6
f 427/2/6 420/2/6 428/2/6
f 428/2/6 420/2/6 429/2/6
f 420/3/6 421/3/6 430/3/6
f 429/2/6 420/2/6 430/2/6
f 421/3/6 412/3/6 431/3/6
f 430/3/6 421/3/6 431/3/6
f 422/1/6 423/1/6 432/1/6
f 431/3/6 412/3/6 432/3/6
f 412/1/6 422/1/6 432/1/6
f 432/1/6 423/1/6 433/1/6
f 427/2/6 428/2/6 434/2/6
f 426/2/6 427/2/6 434/2/6
f 428/3/6 429/3/6 435/3/6
f 434/2/6 428/2/6 435/2/6
f 430/2/6 431/2/6 436/2/6
f 435/3/6 429/3/6 436/3/6
f 429/2/6 430/2/6 436/2/6
f 436/2/6 431/2/6 437/2/6
f 434/3/6 435/3/6 438/3/6
f 426/2/6 434/2/6 438/2/6
f 436/3/6 437/3/6 438/3/6
f 435/3/6 436/3/6 438/3/6
f 438/3/6 437/3/6 439/3/6
f 439/3/6 437/3/6 440/3/6
f 437/2/6 431/2/6 441/2/6
f 440/3/6 437/3/6 441/3/6
f 414/4/6 425/4/6 442/4/6
f 425/3/6 426/3/6 443/3/6
f 442/4/6 425/4/6 443/4/6
f 443/3/6 426/3/6 444/3/6
f 426/2/6 438/2/6 445/2/6
f 444/3/6 426/3/6 445/3/6
f 438/2/6 439/2/6 445/2/6
f 445/2/6 439/2/6 446/2/6
f 446/2/6 439/2/6 447/2/6
f 447/2/6 439/2/6 448/2/6
f 439/3/6 440/3/6 449/3/6
f 448/2/6 439/2/6 449/2/6
f 440/2/6 441/2/6 450/2/6
f 449/3/6 440/3/6 450/3/6
f 441/2/6 431/2/6 451/2/6
f 450/2/6 441/2/6 451/2/6
f 431/1/6 432/1/6 452/1/6
f 451/2/6 431/2/6 452/2/6
f 432/3/6 433/3/6 453/3/6
f 452/1/6 432/1/6 453/1/6
f 433/1/6 423/1/6 454/1/6
f 453/3/6 433/3/6 454/3/6
f 423/4/6 424/4/6 455/4/6
f 454/1/6 423/1/6 455/1/6
f 455/4/6 424/4/6 456/4/6
f 443/4/6 444/4/6 457/4/6
f 444/1/6 445/1/6 457/1/6
f 445/3/6 446/3/6 458/3/6
f 457/1/6 445/1/6 458/1/6
f 446/2/6 447/2/6 459/2/6
f 458/3/6 446/3/6 459/3/6
f 447/3/6 448/3/6 460/3/6
f 459/2/6 447/2/6 460/2/6
f 449/2/6 450/2/6 461/2/6
f 450/2/6 451/2/6 461/2/6
f 448/2/6 449/2/6 461/2/6
f 452/3/6 453/3/6 462/3/6
f 461/2/6 451/2/6 462/2/6
f 451/3/6 452/3/6 462/3/6
f 462/3/6 453/3/6 463/3/6
f 453/1/6 454/1/6 464/1/6
f 463/3/6 453/3/6 464/3/6
f 454/4/6 455/4/6 465/4/6
f 464/1/6 454/1/6 465/1/6
f 458/3/6 459/3/6 466/3/6
f 457/3/6 458/3/6 466/3/6
f 459/3/6 460/3/6 466/3/6
f 443/4/6 457/4/6 466/4/6
f 466/3/6 460/3/6 467/3/6
f 467/3/6 460/3/6 468/3/6
f 468/3/6 460/3/6 469/3/6
f 469/3/6 460/3/6 470/3/6
f 460/3/6 448/3/6 471/3/6
f 470/3/6 460/3/6 471/3/6
f 448/2/6 461/2/6 471/2/6
f 462/3/6 463/3/6 472/3/6
f 471/2/6 461/2/6 472/2/6
f 461/3/6 462/3/6 472/3/6
f 472/3/6 463/3/6 473/3/6
f 463/1/6 464/1/6 474/1/6
f 473/3/6 463/3/6 474/3/6
f 464/3/6 465/3/6 475/3/6
f 474/1/6 464/1/6 475/1/6
f 475/3/6 465/3/6 476/3/6
f 465/4/6 455/4/6 477/4/6
f 476/3/6 465/3/6 477/3/6
f 477/4/6 455/4/6 478/4/6
f 467/1/6 468/1/6 479/1/6
f 466/4/6 467/4/6 479/4/6
f 468/3/6 469/3/6 480/3/6
f 479/1/6 468/1/6 480/1/6
f 469/1/6 470/1/6 481/1/6
f 480/3/6 469/3/6 481/3/6
f 470/3/6 471/3/6 482/3/6
f 481/1/6 470/1/6 482/1/6
f 471/1/6 472/1/6 483/1/6
f 482/3/6 471/3/6 483/3/6
f 472/3/6 473/3/6 484/3/6
f 483/1/6 472/1/6 484/1/6
f 475/1/6 476/1/6 485/1/6
f 484/3/6 473/3/6 485/3/6
f 473/1/6 474/1/6 485/1/6
f 474/1/6 475/1/6 485/1/6
f 485/1/6 476/1/6 486/1/6
f 486/1/6 476/1/6 487/1/6
f 476/4/6 477/4/6 488/4/6
f 487/1/6 476/1/6 488/1/6
f 466/4/6 479/4/6 489/4/6
f 443/4/6 466/4/6 489/4/6
f 479/3/6 480/3/6 490/3/6
f 489/4/6 479/4/6 490/4/6
f 480/1/6 481/1/6 491/1/6
f 490/3/6 480/3/6 491/3/6
f 481/3/6 482/3/6 492/3/6
f 491/1/6 481/1/6 492/1/6
f 486/1/6 487/1/6 493/1/6
f 485/3/6 486/3/6 493/3/6
f 487/3/6 488/3/6 494/3/6
f 493/1/6 487/1/6 494/1/6
f 488/4/6 477/4/6 495/4/6
f 494/3/6 488/3/6 495/3/6
f 495/4/6 477/4/6 496/4/6
f 490/4/6 491/4/6 497/4/6
f 491/3/6 492/3/6 498/3/6
f 497/4/6 491/4/6 498/4/6
f 482/1/6 483/1/6 499/1/6
f 498/3/6 492/3/6 499/3/6
f 492/3/6 482/3/6 499/3/6
f 499/1/6 483/1/6 500/1/6
f 483/3/6 484/3/6 501/3/6
f 500/1/6 483/1/6 501/1/6
f 484/1/6 485/1/6 502/1/6
f 501/3/6 484/3/6 502/3/6
f 485/3/6 493/3/6 503/3/6
f 502/1/6 485/1/6 503/1/6
f 493/4/6 494/4/6 504/4/6
f 503/3/6 493/3/6 504/3/6
f 494/4/6 495/4/6 504/4/6
f 504/4/6 495/4/6 505/4/6
f 499/4/6 500/4/6 506/4/6
f 498/4/6 499/4/6 506/4/6
f 500/1/6 501/1/6 507/1/6
f 506/4/6 500/4/6 507/4/6
f 501/1/6 502/1/6 507/1/6
f 502/4/6 503/4/6 508/4/6
f 507/1/6 502/1/6 508/1/6
f 503/4/6 504/4/6 508/4/6
f 508/4/6 504/4/6 509/4/6
f 507/4/6 508/4/6 510/4/6
f 510/4/6 508/4/6 511/4/6
